# xmcd
#
# Track frame offsets:
#	150
#	12241
#	21335
#	37542
#	52100
#	66143
#	79157
#	93960
#	113627
#	129830
#	136710
#	157440
#
# Disc length: 2295 seconds
#
# Revision: 0
# Processed by: cddbd v1.5.2PL0 Copyright (c) Steve Scherf et al.
# Submitted via: EasyCDDAExtractor 2010.6.0.0
#
DISCID=9108f50c
DTITLE=Vladimir Vysotsky - 05 Мир Вашему Дому (На Концертах, №5)
DYEAR=2002
DGENRE=Vocal
TTITLE0=О Поэтах И Кликушах
TTITLE1=Песня Летчика
TTITLE2=Песня Самолета-Истребителя
TTITLE3=Случай В Ресторане
TTITLE4=Песенка Про Мангустов
TTITLE5=Веселая Покойническая
TTITLE6=Москва-Одесса
TTITLE7=Моя Цыганская
TTITLE8=Лошадей Двадцать Тысяч В Машины Зажаты...
TTITLE9=Когда Я Спотыкаюсь На Стихах...
TTITLE10=Баллада О Брошеном Корабле
TTITLE11=Песня О Кораблях
EXTD=
EXTT0=
EXTT1=
EXTT2=
EXTT3=
EXTT4=
EXTT5=
EXTT6=
EXTT7=
EXTT8=
EXTT9=
EXTT10=
EXTT11=
PLAYORDER=
